# xmcd
#
# Track frame offsets:
#	150
#	21641
#	36972
#	55373
#	76568
#	93429
#	119083
#	137506
#	154869
#	172437
#	187696
#	206632
#	222896
#	243221
#	260906
#	275718
#	293583
#	311640
#	326472
#	341350
#
# Disc length: 4764 seconds
#
# Revision: 0
# Processed by: cddbd v1.5.2PL0 Copyright (c) Steve Scherf et al.
# Submitted via: EasyCDDAExtractor 2010.6.0.0
#
DISCID=2e129a14
DTITLE=Various Artist - Dance Classics Top 100 cd 3
DYEAR=2006
DGENRE=Dance
TTITLE0=Gary's Gang - Show Time
TTITLE1=Tom Browne - Funkin' For Jamaica
TTITLE2=Oliver Cheatham - Get Down Saturday Night
TTITLE3=Rick James - Glow
TTITLE4=Dan Hartman - Relight My Fire
TTITLE5=Boys Town Gang - Can't Take My Eyes Off Of You
TTITLE6=Yarbrough and Peoples - Don't Stop The Music
TTITLE7=Time Bandits - I'm Specialized In You
TTITLE8=Sister Sledge - All American Girls
TTITLE9=Lyn Collins - Think
TTITLE10=Chaka Khan - I Feel For You
TTITLE11=Colonel Abrams - Trapped
TTITLE12=E.G. Daily - Say It Say It
TTITLE13=Mary Jane Girls - In My House
TTITLE14=Shakatak - Down On The Street
TTITLE15=Sharon Brown - I Specialize In Love
TTITLE16=Temptations - Treat Her Like A Lady
TTITLE17=Stock, Aitken and Waterman - Roadblock
TTITLE18=Fun Fun - Happy Station
TTITLE19=Gwen Guthrie - Ain't Nothing Going On But The Rent
EXTD=
EXTT0=
EXTT1=
EXTT2=
EXTT3=
EXTT4=
EXTT5=
EXTT6=
EXTT7=
EXTT8=
EXTT9=
EXTT10=
EXTT11=
EXTT12=
EXTT13=
EXTT14=
EXTT15=
EXTT16=
EXTT17=
EXTT18=
EXTT19=
PLAYORDER=
